<?xml version="1.0" encoding="UTF-8" standalone="no"?>
<!-- Created with Inkscape (http://www.inkscape.org/) -->

<svg
   xmlns:dc="http://purl.org/dc/elements/1.1/"
   xmlns:cc="http://creativecommons.org/ns#"
   xmlns:rdf="http://www.w3.org/1999/02/22-rdf-syntax-ns#"
   xmlns:svg="http://www.w3.org/2000/svg"
   xmlns="http://www.w3.org/2000/svg"
   xmlns:xlink="http://www.w3.org/1999/xlink"
   xmlns:sodipodi="http://sodipodi.sourceforge.net/DTD/sodipodi-0.dtd"
   xmlns:inkscape="http://www.inkscape.org/namespaces/inkscape"
   version="1.1"
   id="svg1609"
   width="1100.3502"
   height="238.38235">
  <metadata
     id="metadata1615">
    <rdf:RDF>
      <cc:Work
         rdf:about="">
        <dc:format>image/svg+xml</dc:format>
        <dc:type
           rdf:resource="http://purl.org/dc/dcmitype/StillImage" />
      </cc:Work>
    </rdf:RDF>
  </metadata>
  <defs
     id="defs1613">
    <linearGradient
       y2="285.62772"
       x2="30.558443"
       y1="222.81731"
       x1="-58.612122"
       gradientTransform="translate(-10.813772,-115.86184)"
       gradientUnits="userSpaceOnUse"
       id="linearGradient1325"
       xlink:href="#linearGradient4662-3"
       inkscape:collect="always" />
    <linearGradient
       id="linearGradient4662-3"
       inkscape:collect="always">
      <stop
         id="stop4658"
         offset="0"
         style="stop-color:#17a2b8;stop-opacity:1" />
      <stop
         id="stop4660"
         offset="1"
         style="stop-color:#1731b8;stop-opacity:1" />
    </linearGradient>
    <linearGradient
       y2="285.62772"
       x2="30.558443"
       y1="222.81731"
       x1="-58.612122"
       gradientTransform="translate(-10.813772,-115.86184)"
       gradientUnits="userSpaceOnUse"
       id="linearGradient1311"
       xlink:href="#linearGradient4662-3"
       inkscape:collect="always" />
    <linearGradient
       id="linearGradient1626"
       inkscape:collect="always">
      <stop
         id="stop1622"
         offset="0"
         style="stop-color:#17a2b8;stop-opacity:1" />
      <stop
         id="stop1624"
         offset="1"
         style="stop-color:#1731b8;stop-opacity:1" />
    </linearGradient>
    <linearGradient
       y2="285.62772"
       x2="30.558443"
       y1="222.81731"
       x1="-58.612122"
       gradientTransform="translate(-13.459607,-115.86184)"
       gradientUnits="userSpaceOnUse"
       id="linearGradient1313"
       xlink:href="#linearGradient4662-3"
       inkscape:collect="always" />
    <linearGradient
       id="linearGradient1633"
       inkscape:collect="always">
      <stop
         id="stop1629"
         offset="0"
         style="stop-color:#17a2b8;stop-opacity:1" />
      <stop
         id="stop1631"
         offset="1"
         style="stop-color:#1731b8;stop-opacity:1" />
    </linearGradient>
    <linearGradient
       y2="285.62772"
       x2="30.558443"
       y1="222.81731"
       x1="-58.612122"
       gradientTransform="translate(-14.517941,-115.86184)"
       gradientUnits="userSpaceOnUse"
       id="linearGradient1315"
       xlink:href="#linearGradient4662-3"
       inkscape:collect="always" />
    <linearGradient
       id="linearGradient1640"
       inkscape:collect="always">
      <stop
         id="stop1636"
         offset="0"
         style="stop-color:#17a2b8;stop-opacity:1" />
      <stop
         id="stop1638"
         offset="1"
         style="stop-color:#1731b8;stop-opacity:1" />
    </linearGradient>
    <linearGradient
       y2="285.62772"
       x2="30.558443"
       y1="222.81731"
       x1="-58.612122"
       gradientTransform="translate(-15.576275,-115.86184)"
       gradientUnits="userSpaceOnUse"
       id="linearGradient1317"
       xlink:href="#linearGradient4662-3"
       inkscape:collect="always" />
    <linearGradient
       id="linearGradient1647"
       inkscape:collect="always">
      <stop
         id="stop1643"
         offset="0"
         style="stop-color:#17a2b8;stop-opacity:1" />
      <stop
         id="stop1645"
         offset="1"
         style="stop-color:#1731b8;stop-opacity:1" />
    </linearGradient>
    <linearGradient
       y2="285.62772"
       x2="30.558443"
       y1="222.81731"
       x1="-58.612122"
       gradientTransform="translate(-18.22211,-115.86184)"
       gradientUnits="userSpaceOnUse"
       id="linearGradient1319"
       xlink:href="#linearGradient4662-3"
       inkscape:collect="always" />
    <linearGradient
       id="linearGradient1654"
       inkscape:collect="always">
      <stop
         id="stop1650"
         offset="0"
         style="stop-color:#17a2b8;stop-opacity:1" />
      <stop
         id="stop1652"
         offset="1"
         style="stop-color:#1731b8;stop-opacity:1" />
    </linearGradient>
    <linearGradient
       y2="285.62772"
       x2="30.558443"
       y1="222.81731"
       x1="-58.612122"
       gradientTransform="translate(-21.397112,-115.86184)"
       gradientUnits="userSpaceOnUse"
       id="linearGradient1321"
       xlink:href="#linearGradient4662-3"
       inkscape:collect="always" />
    <linearGradient
       id="linearGradient1661"
       inkscape:collect="always">
      <stop
         id="stop1657"
         offset="0"
         style="stop-color:#17a2b8;stop-opacity:1" />
      <stop
         id="stop1659"
         offset="1"
         style="stop-color:#1731b8;stop-opacity:1" />
    </linearGradient>
    <linearGradient
       y2="285.62772"
       x2="30.558443"
       y1="222.81731"
       x1="-58.612122"
       gradientTransform="translate(-23.51378,-115.86184)"
       gradientUnits="userSpaceOnUse"
       id="linearGradient1323"
       xlink:href="#linearGradient4662-3"
       inkscape:collect="always" />
    <linearGradient
       id="linearGradient1668"
       inkscape:collect="always">
      <stop
         id="stop1664"
         offset="0"
         style="stop-color:#17a2b8;stop-opacity:1" />
      <stop
         id="stop1666"
         offset="1"
         style="stop-color:#1731b8;stop-opacity:1" />
    </linearGradient>
  </defs>
  <sodipodi:namedview
     pagecolor="#ffffff"
     bordercolor="#666666"
     borderopacity="1"
     objecttolerance="10"
     gridtolerance="10"
     guidetolerance="10"
     inkscape:pageopacity="0"
     inkscape:pageshadow="2"
     inkscape:window-width="640"
     inkscape:window-height="480"
     id="namedview1611" />
  <inkscape:clipboard
     style="font-variant-east_asian:normal;opacity:1;vector-effect:none;fill:#000000;fill-opacity:1;stroke-width:3.77952756;stroke-linecap:butt;stroke-linejoin:miter;stroke-miterlimit:4;stroke-dasharray:none;stroke-dashoffset:0;stroke-opacity:1"
     min="-1312.3509,383.32944"
     max="-212.00072,621.71179" />
  <g
     inkscape:export-ydpi="96"
     inkscape:export-xdpi="96"
     id="g4747"
     transform="matrix(3.7795276,0,0,3.7795276,1354.2954,-43.30535)">
    <g
       id="g1109">
      <g
         id="g1386">
        <g
           id="g1293"
           transform="translate(-1.117343,3.9287745)">
          <g
             inkscape:export-ydpi="96"
             inkscape:export-xdpi="96"
             transform="translate(-107.71856,-443.39737)"
             id="g4705">
            <path
               transform="rotate(-2.1540468)"
               style="stroke-width:0.1863497"
               d="m -36.430699,485.23569 a 4.7854266,4.7854266 0 0 1 -4.785426,4.78542 4.7854266,4.7854266 0 0 1 -4.785427,-4.78542 4.7854266,4.7854266 0 0 1 4.785427,-4.78543 4.7854266,4.7854266 0 0 1 4.785426,4.78543 z"
               id="circle4679"
               inkscape:connector-curvature="0" />
            <path
               transform="rotate(-2.1540468)"
               style="stroke-width:0.1863497"
               d="m 8.4112835,500.64764 a 4.7854266,4.7854266 0 0 1 -4.7854266,4.78543 4.7854266,4.7854266 0 0 1 -4.7854266,-4.78543 4.7854266,4.7854266 0 0 1 4.7854266,-4.78542 4.7854266,4.7854266 0 0 1 4.7854266,4.78542 z"
               id="circle4681"
               inkscape:connector-curvature="0" />
            <path
               transform="rotate(-2.1540468)"
               style="stroke-width:0.1863497"
               d="m -21.675509,500.405 a 4.7854266,4.7854266 0 0 1 -4.785427,4.78543 4.7854266,4.7854266 0 0 1 -4.785426,-4.78543 4.7854266,4.7854266 0 0 1 4.785426,-4.78543 4.7854266,4.7854266 0 0 1 4.785427,4.78543 z"
               id="circle4683"
               inkscape:connector-curvature="0" />
            <path
               transform="rotate(-2.1540468)"
               style="stroke-width:0.1863497"
               d="m -6.4571271,485.33221 a 4.7854266,4.7854266 0 0 1 -4.7854269,4.78543 4.7854266,4.7854266 0 0 1 -4.785426,-4.78543 4.7854266,4.7854266 0 0 1 4.785426,-4.78542 4.7854266,4.7854266 0 0 1 4.7854269,4.78542 z"
               id="circle4685"
               inkscape:connector-curvature="0" />
            <path
               transform="rotate(-2.1540468)"
               style="stroke-width:0.1863497"
               d="m 23.389516,486.07687 a 4.7854266,4.7854266 0 0 1 -4.785426,4.78543 4.7854266,4.7854266 0 0 1 -4.785427,-4.78543 4.7854266,4.7854266 0 0 1 4.785427,-4.78542 4.7854266,4.7854266 0 0 1 4.785426,4.78542 z"
               id="circle4687"
               inkscape:connector-curvature="0" />
            <path
               transform="rotate(-2.1540468)"
               style="stroke-width:0.1863497"
               d="m 8.5362871,470.74362 a 4.7854266,4.7854266 0 0 1 -4.7854266,4.78543 4.7854266,4.7854266 0 0 1 -4.7854267,-4.78543 4.7854266,4.7854266 0 0 1 4.7854267,-4.78542 4.7854266,4.7854266 0 0 1 4.7854266,4.78542 z"
               id="circle4689"
               inkscape:connector-curvature="0" />
            <path
               transform="rotate(-2.1540468)"
               style="stroke-width:0.1863497"
               d="m -21.186253,470.28143 a 4.7854266,4.7854266 0 0 1 -4.785427,4.78543 4.7854266,4.7854266 0 0 1 -4.785426,-4.78543 4.7854266,4.7854266 0 0 1 4.785426,-4.78542 4.7854266,4.7854266 0 0 1 4.785427,4.78542 z"
               id="circle4691"
               inkscape:connector-curvature="0" />
            <path
               transform="rotate(-2.1540468)"
               style="stroke-width:0.1863497"
               d="m -6.1757092,455.62186 a 4.7854266,4.7854266 0 0 1 -4.7854268,4.78542 4.7854266,4.7854266 0 0 1 -4.785426,-4.78542 4.7854266,4.7854266 0 0 1 4.785426,-4.78543 4.7854266,4.7854266 0 0 1 4.7854268,4.78543 z"
               id="circle4693"
               inkscape:connector-curvature="0" />
            <path
               transform="rotate(43.597017)"
               style="stroke-width:0.21574686"
               d="m 317.62143,325.18359 h 1.74015 v 43.73416 h -1.74015 z"
               id="rect4695"
               inkscape:connector-curvature="0" />
            <path
               transform="rotate(-46.517338)"
               style="stroke-width:0.21574686"
               d="m -327.56052,318.71191 h 1.74016 v 43.73416 h -1.74016 z"
               id="rect4697"
               inkscape:connector-curvature="0" />
            <path
               transform="rotate(43.597017)"
               style="stroke-width:0.15371096"
               d="m 339.00775,325.18359 h 1.74016 V 347.383 h -1.74016 z"
               id="rect4699"
               inkscape:connector-curvature="0" />
            <path
               transform="matrix(0.68887469,-0.72488045,0.72701621,0.68662029,0,0)"
               style="stroke-width:0.15087026"
               d="m -370.34094,319.00449 h 1.74015 v 21.3865 h -1.74015 z"
               id="rect4701"
               inkscape:connector-curvature="0" />
            <path
               transform="matrix(0.68887469,-0.72488045,0.72701621,0.68662029,0,0)"
               style="stroke-width:0.15087026"
               d="m -349.52057,340.3913 h 1.74015 v 21.3865 h -1.74015 z"
               id="rect4703"
               inkscape:connector-curvature="0" />
          </g>
        </g>
        <g
           id="g1357">
          <g
             id="g1335"
             transform="translate(11.582659,-4.4240864)">
            <g
               aria-label="cenadev"
               transform="translate(-199.98401,-93.82099)"
               style="font-style:normal;font-weight:normal;font-size:10.58333302px;line-height:1.25;font-family:sans-serif;letter-spacing:0px;word-spacing:0px;fill:url(#linearGradient1325);fill-opacity:1;stroke:none;stroke-width:0.26458332"
               id="text4677">
              <path
                 d="m -143.40643,147.85255 h -17.4873 q -1.33945,0 -2.92695,-0.47128 -1.5875,-0.47129 -2.95176,-1.5379 -1.33946,-1.0914 -2.25723,-2.80292 -0.89297,-1.73633 -0.89297,-4.24161 v -8.73125 q 0,-0.91777 0.19844,-1.93476 0.22324,-1.01699 0.66973,-2.00918 0.44648,-1.01699 1.14101,-1.93477 0.71934,-0.91777 1.71153,-1.6123 1.01699,-0.69453 2.33164,-1.11621 1.31464,-0.42168 2.97656,-0.42168 h 17.4873 v 6.44922 h -17.4873 q -1.26504,0 -1.93477,0.64492 -0.64492,0.64492 -0.64492,1.98437 v 8.68164 q 0,1.26504 0.66973,1.93477 0.66972,0.66973 1.95957,0.66973 h 17.43769 z"
                 style="font-style:normal;font-variant:normal;font-weight:normal;font-stretch:normal;font-size:50.79999924px;font-family:Audiowide;-inkscape-font-specification:Audiowide;fill:url(#linearGradient1311);fill-opacity:1;stroke-width:0.26458332"
                 id="path4749"
                 inkscape:connector-curvature="0" />
              <path
                 d="m -112.02025,129.91877 q 0,1.33945 -0.47128,2.90214 -0.47129,1.53789 -1.5379,2.87735 -1.04179,1.31465 -2.75332,2.20761 -1.68671,0.89297 -4.11757,0.89297 h -11.6334 v -6.12675 h 11.6334 q 1.31464,0 2.03398,-0.79375 0.71934,-0.81856 0.71934,-2.00918 0,-1.26504 -0.81856,-1.98438 -0.79375,-0.71933 -1.93476,-0.71933 h -11.6334 q -1.31465,0 -2.03399,0.81855 -0.71933,0.79375 -0.71933,1.98437 v 9.00411 q 0,1.28984 0.79375,2.00918 0.81855,0.71933 2.00918,0.71933 h 11.58379 v 6.15156 h -11.6334 q -1.33946,0 -2.90215,-0.47128 -1.53789,-0.47129 -2.87734,-1.51309 -1.31465,-1.0666 -2.20762,-2.75332 -0.89297,-1.71152 -0.89297,-4.14238 v -9.05371 q 0,-1.33946 0.47129,-2.87735 0.47129,-1.56269 1.51308,-2.87734 1.06661,-1.33945 2.75333,-2.23242 1.71152,-0.89297 4.14238,-0.89297 h 11.6334 q 1.33945,0 2.87734,0.47129 1.5627,0.47129 2.87734,1.53789 1.33946,1.04179 2.23243,2.75332 0.89296,1.68672 0.89296,4.11758 z"
                 style="font-style:normal;font-variant:normal;font-weight:normal;font-stretch:normal;font-size:50.79999924px;font-family:Audiowide;-inkscape-font-specification:Audiowide;fill:url(#linearGradient1313);fill-opacity:1;stroke-width:0.26458332"
                 id="path4751"
                 inkscape:connector-curvature="0" />
              <path
                 d="m -78.972121,147.85255 h -6.449219 v -14.88281 q 0,-1.26504 -0.446484,-2.25722 -0.42168,-1.017 -1.165821,-1.73633 -0.74414,-0.71934 -1.761133,-1.09141 -0.992187,-0.39687 -2.158007,-0.39687 h -11.286145 v 20.36464 h -6.44923 v -23.61406 q 0,-0.66972 0.24805,-1.24023 0.24805,-0.59531 0.69453,-1.01699 0.44648,-0.44649 1.0418,-0.69454 0.59531,-0.24804 1.26504,-0.24804 h 14.535564 q 1.21543,0 2.554883,0.27285 1.364258,0.27285 2.678906,0.89297 1.339453,0.59531 2.530078,1.53789 1.21543,0.91777 2.133203,2.25722 0.942578,1.31465 1.488281,3.05098 0.545704,1.73633 0.545704,3.91914 z"
                 style="font-style:normal;font-variant:normal;font-weight:normal;font-stretch:normal;font-size:50.79999924px;font-family:Audiowide;-inkscape-font-specification:Audiowide;fill:url(#linearGradient1315);fill-opacity:1;stroke-width:0.26458332"
                 id="path4753"
                 inkscape:connector-curvature="0" />
              <path
                 d="m -46.643343,138.97248 q 0,1.33945 -0.471289,2.90214 -0.471289,1.5379 -1.537891,2.87735 -1.041797,1.31465 -2.75332,2.20762 -1.686719,0.89296 -4.117578,0.89296 h -11.633398 q -1.339453,0 -2.902149,-0.47128 -1.53789,-0.47129 -2.877343,-1.51309 -1.314649,-1.0666 -2.207618,-2.75332 -0.892968,-1.71152 -0.892968,-4.14238 0,-1.33946 0.471289,-2.90215 0.471289,-1.5627 1.513086,-2.87735 1.066601,-1.33945 2.75332,-2.23242 1.711523,-0.89297 4.142383,-0.89297 h 11.633398 v 6.15157 h -11.633398 q -1.314649,0 -2.033985,0.81855 -0.719336,0.79375 -0.719336,1.98438 0,1.26503 0.818555,1.98437 0.84336,0.69453 1.984375,0.69453 h 11.583789 q 1.314648,0 2.033984,-0.79375 0.719336,-0.79375 0.719336,-1.98437 v -9.0041 q 0,-1.26504 -0.79375,-2.00918 -0.768945,-0.74414 -1.95957,-0.74414 h -14.163476 v -6.12676 h 14.163476 q 1.339453,0 2.877344,0.47129 1.562695,0.47129 2.877343,1.53789 1.339454,1.04179 2.232422,2.75332 0.892969,1.68672 0.892969,4.11758 z"
                 style="font-style:normal;font-variant:normal;font-weight:normal;font-stretch:normal;font-size:50.79999924px;font-family:Audiowide;-inkscape-font-specification:Audiowide;fill:url(#linearGradient1317);fill-opacity:1;stroke-width:0.26458332"
                 id="path4755"
                 inkscape:connector-curvature="0" />
              <path
                 d="m -14.314574,138.79884 q 0,1.66192 -0.42168,3.00137 -0.42168,1.31465 -1.116212,2.33164 -0.694531,0.99219 -1.612306,1.71152 -0.917773,0.69454 -1.934765,1.14102 -0.992188,0.44648 -2.033984,0.66973 -1.016993,0.19843 -1.934766,0.19843 h -11.633398 q -1.661914,0 -2.976563,-0.42168 -1.314648,-0.42168 -2.33164,-1.11621 -0.992188,-0.71933 -1.711524,-1.63711 -0.694531,-0.91777 -1.141015,-1.90996 -0.446485,-1.01699 -0.669727,-2.03398 -0.198437,-1.0418 -0.198437,-1.93477 v -8.73125 q 0,-2.48047 0.892968,-4.19199 0.917774,-1.73633 2.257227,-2.80293 1.364258,-1.0914 2.951758,-1.56269 1.5875,-0.47129 2.926953,-0.47129 h 11.633398 v 6.44922 h -11.583789 q -1.289844,0 -1.95957,0.66972 -0.669727,0.64492 -0.669727,1.90996 v 8.68164 q 0,1.31465 0.644922,1.98438 0.669727,0.66973 1.934766,0.66973 h 11.633398 q 1.314648,0 1.95957,-0.66973 0.644922,-0.66973 0.644922,-1.93477 v -29.09589 h 6.449221 z"
                 style="font-style:normal;font-variant:normal;font-weight:normal;font-stretch:normal;font-size:50.79999924px;font-family:Audiowide;-inkscape-font-specification:Audiowide;fill:url(#linearGradient1319);fill-opacity:1;stroke-width:0.26458332"
                 id="path4757"
                 inkscape:connector-curvature="0" />
              <path
                 d="m 17.559451,129.91877 q 0,1.33945 -0.471289,2.90214 -0.471289,1.53789 -1.53789,2.87735 -1.041797,1.31465 -2.753321,2.20761 -1.686718,0.89297 -4.1175771,0.89297 H -2.9540188 v -6.12675 H 8.6793739 q 1.3146484,0 2.0339841,-0.79375 0.719336,-0.81856 0.719336,-2.00918 0,-1.26504 -0.818555,-1.98438 -0.7937497,-0.71933 -1.9347651,-0.71933 H -2.9540188 q -1.3146485,0 -2.0339843,0.81855 -0.719336,0.79375 -0.719336,1.98437 v 9.00411 q 0,1.28984 0.79375,2.00918 0.8185547,0.71933 2.0091797,0.71933 H 8.6793739 v 6.15156 H -2.9540188 q -1.3394531,0 -2.9021485,-0.47128 -1.5378906,-0.47129 -2.8773436,-1.51309 -1.3146481,-1.0666 -2.2076171,-2.75332 -0.89297,-1.71152 -0.89297,-4.14238 v -9.05371 q 0,-1.33946 0.47129,-2.87735 0.471289,-1.56269 1.5130861,-2.87734 1.0666016,-1.33945 2.7533204,-2.23242 1.7115234,-0.89297 4.1423827,-0.89297 H 8.6793739 q 1.3394521,0 2.8773431,0.47129 1.562695,0.47129 2.877344,1.53789 1.339453,1.04179 2.232422,2.75332 0.892968,1.68672 0.892968,4.11758 z"
                 style="font-style:normal;font-variant:normal;font-weight:normal;font-stretch:normal;font-size:50.79999924px;font-family:Audiowide;-inkscape-font-specification:Audiowide;fill:url(#linearGradient1321);fill-opacity:1;stroke-width:0.26458332"
                 id="path4759"
                 inkscape:connector-curvature="0" />
              <path
                 d="m 51.83126,121.03869 q -1.091406,3.39824 -2.554883,6.69726 -1.463477,3.29903 -3.373437,6.30039 -1.885157,2.97657 -4.241602,5.53145 -2.331641,2.53008 -5.18418,4.39043 -2.827734,1.83555 -6.176367,2.90215 -3.323828,1.04179 -7.218164,1.04179 -0.669726,0 -1.265039,-0.24804 -0.595312,-0.24805 -1.041796,-0.66973 -0.446485,-0.44648 -0.694532,-1.01699 -0.248047,-0.59531 -0.248047,-1.26504 v -23.66367 h 6.449219 v 20.16621 q 2.356445,0 4.514453,-1.01699 2.182813,-1.017 4.117578,-2.67891 1.934766,-1.68672 3.571875,-3.81992 1.661914,-2.13321 2.951758,-4.36563 1.289844,-2.25722 2.182812,-4.41523 0.917774,-2.15801 1.364258,-3.86953 z"
                 style="font-style:normal;font-variant:normal;font-weight:normal;font-stretch:normal;font-size:50.79999924px;font-family:Audiowide;-inkscape-font-specification:Audiowide;fill:url(#linearGradient1323);fill-opacity:1;stroke-width:0.26458332"
                 id="path4761"
                 inkscape:connector-curvature="0" />
            </g>
          </g>
          <g
             id="text40-3"
             style="font-style:normal;font-weight:normal;font-size:10.58333302px;line-height:1.25;font-family:sans-serif;letter-spacing:0px;word-spacing:0px;fill:#000000;fill-opacity:1;stroke:none;stroke-width:0.26458332"
             aria-label="Develop your business!">
            <path
               id="path1568"
               style="font-style:normal;font-variant:normal;font-weight:bold;font-stretch:normal;font-size:16.93333244px;font-family:sans-serif;-inkscape-font-specification:'sans-serif Bold';stroke-width:0.26458332"
               d="m -355.14072,60.936902 v 7.532356 h 1.14101 q 1.9513,0 2.97657,-0.967383 1.03352,-0.967382 1.03352,-2.811197 0,-1.835547 -1.02526,-2.794662 -1.02526,-0.959114 -2.98483,-0.959114 z m -3.18327,-2.406055 h 3.3569 q 2.8112,0 4.18372,0.405144 1.3808,0.396874 2.36472,1.355989 0.86816,0.835091 1.28984,1.926497 0.42168,1.091407 0.42168,2.472201 0,1.39733 -0.42168,2.497005 -0.42168,1.091406 -1.28984,1.926497 -0.99219,0.959115 -2.38125,1.364258 -1.38907,0.396875 -4.16719,0.396875 h -3.3569 z"
               inkscape:connector-curvature="0" />
            <path
               id="path1570"
               style="font-style:normal;font-variant:normal;font-weight:bold;font-stretch:normal;font-size:16.93333244px;font-family:sans-serif;-inkscape-font-specification:'sans-serif Bold';stroke-width:0.26458332"
               d="m -335.15641,66.2203 v 0.843359 h -6.92051 q 0.10749,1.041797 0.75241,1.562696 0.64492,0.520898 1.80247,0.520898 0.93431,0 1.90996,-0.272852 0.98392,-0.281119 2.01745,-0.843359 v 2.282031 q -1.05006,0.396875 -2.10013,0.595313 -1.05006,0.206705 -2.10013,0.206705 -2.51354,0 -3.91087,-1.273307 -1.38906,-1.281575 -1.38906,-3.588411 0,-2.265495 1.36425,-3.563607 1.37253,-1.298112 3.77032,-1.298112 2.18281,0 3.48919,1.314649 1.31465,1.314648 1.31465,3.513997 z m -3.04271,-0.983919 q 0,-0.84336 -0.4961,-1.35599 -0.48782,-0.520898 -1.28157,-0.520898 -0.8599,0 -1.39733,0.487825 -0.53744,0.479558 -0.66973,1.389063 z"
               inkscape:connector-curvature="0" />
            <path
               id="path1572"
               style="font-style:normal;font-variant:normal;font-weight:bold;font-stretch:normal;font-size:16.93333244px;font-family:sans-serif;-inkscape-font-specification:'sans-serif Bold';stroke-width:0.26458332"
               d="m -334.08981,61.614897 h 2.96002 l 2.30684,6.399609 2.29857,-6.399609 h 2.96829 l -3.64629,9.260416 h -3.24941 z"
               inkscape:connector-curvature="0" />
            <path
               id="path1574"
               style="font-style:normal;font-variant:normal;font-weight:bold;font-stretch:normal;font-size:16.93333244px;font-family:sans-serif;-inkscape-font-specification:'sans-serif Bold';stroke-width:0.26458332"
               d="m -312.63376,66.2203 v 0.843359 h -6.92051 q 0.10749,1.041797 0.75241,1.562696 0.64492,0.520898 1.80248,0.520898 0.93431,0 1.90996,-0.272852 0.98392,-0.281119 2.01744,-0.843359 v 2.282031 q -1.05006,0.396875 -2.10013,0.595313 -1.05006,0.206705 -2.10013,0.206705 -2.51354,0 -3.91087,-1.273307 -1.38906,-1.281575 -1.38906,-3.588411 0,-2.265495 1.36426,-3.563607 1.37252,-1.298112 3.77031,-1.298112 2.18281,0 3.48919,1.314649 1.31465,1.314648 1.31465,3.513997 z m -3.04271,-0.983919 q 0,-0.84336 -0.49609,-1.35599 -0.48783,-0.520898 -1.28158,-0.520898 -0.85989,0 -1.39733,0.487825 -0.53743,0.479558 -0.66972,1.389063 z"
               inkscape:connector-curvature="0" />
            <path
               id="path1576"
               style="font-style:normal;font-variant:normal;font-weight:bold;font-stretch:normal;font-size:16.93333244px;font-family:sans-serif;-inkscape-font-specification:'sans-serif Bold';stroke-width:0.26458332"
               d="m -310.40134,58.009949 h 2.96003 v 12.865364 h -2.96003 z"
               inkscape:connector-curvature="0" />
            <path
               id="path1578"
               style="font-style:normal;font-variant:normal;font-weight:bold;font-stretch:normal;font-size:16.93333244px;font-family:sans-serif;-inkscape-font-specification:'sans-serif Bold';stroke-width:0.26458332"
               d="m -300.17354,63.508321 q -0.98392,0 -1.50482,0.711068 -0.51263,0.702799 -0.51263,2.033984 0,1.331185 0.51263,2.042252 0.5209,0.7028 1.50482,0.7028 0.96738,0 1.48001,-0.7028 0.51263,-0.711067 0.51263,-2.042252 0,-1.331185 -0.51263,-2.033984 -0.51263,-0.711068 -1.48001,-0.711068 z m 0,-2.116667 q 2.38952,0 3.72897,1.289844 1.34772,1.289844 1.34772,3.571875 0,2.282031 -1.34772,3.571875 -1.33945,1.289843 -3.72897,1.289843 -2.39778,0 -3.75377,-1.289843 -1.34773,-1.289844 -1.34773,-3.571875 0,-2.282031 1.34773,-3.571875 1.35599,-1.289844 3.75377,-1.289844 z"
               inkscape:connector-curvature="0" />
            <path
               id="path1580"
               style="font-style:normal;font-variant:normal;font-weight:bold;font-stretch:normal;font-size:16.93333244px;font-family:sans-serif;-inkscape-font-specification:'sans-serif Bold';stroke-width:0.26458332"
               d="m -289.97882,69.53586 v 4.861718 h -2.96002 V 61.614897 h 2.96002 v 1.355989 q 0.61185,-0.810286 1.35599,-1.190625 0.74414,-0.388607 1.71153,-0.388607 1.71152,0 2.81119,1.364258 1.09968,1.35599 1.09968,3.497461 0,2.141471 -1.09968,3.505729 -1.09967,1.355989 -2.81119,1.355989 -0.96739,0 -1.71153,-0.380338 -0.74414,-0.388607 -1.35599,-1.198893 z m 1.96784,-5.994466 q -0.95084,0 -1.46347,0.702799 -0.50437,0.694532 -0.50437,2.00918 0,1.314648 0.50437,2.017448 0.51263,0.694531 1.46347,0.694531 0.95085,0 1.44694,-0.694531 0.50436,-0.694531 0.50436,-2.017448 0,-1.322917 -0.50436,-2.017448 -0.49609,-0.694531 -1.44694,-0.694531 z"
               inkscape:connector-curvature="0" />
            <path
               id="path1582"
               style="font-style:normal;font-variant:normal;font-weight:bold;font-stretch:normal;font-size:16.93333244px;font-family:sans-serif;-inkscape-font-specification:'sans-serif Bold';stroke-width:0.26458332"
               d="m -276.12953,61.614897 h 2.96003 l 2.48873,6.283853 2.11667,-6.283853 h 2.96003 l -3.89434,10.136848 q -0.58704,1.546159 -1.37253,2.158008 -0.77721,0.620117 -2.05878,0.620117 h -1.71153 v -1.943034 h 0.92604 q 0.75241,0 1.09141,-0.239778 0.34727,-0.239779 0.53743,-0.859896 l 0.0827,-0.256315 z"
               inkscape:connector-curvature="0" />
            <path
               id="path1584"
               style="font-style:normal;font-variant:normal;font-weight:bold;font-stretch:normal;font-size:16.93333244px;font-family:sans-serif;-inkscape-font-specification:'sans-serif Bold';stroke-width:0.26458332"
               d="m -259.46078,63.508321 q -0.98392,0 -1.50482,0.711068 -0.51263,0.702799 -0.51263,2.033984 0,1.331185 0.51263,2.042252 0.5209,0.7028 1.50482,0.7028 0.96739,0 1.48002,-0.7028 0.51263,-0.711067 0.51263,-2.042252 0,-1.331185 -0.51263,-2.033984 -0.51263,-0.711068 -1.48002,-0.711068 z m 0,-2.116667 q 2.38952,0 3.72897,1.289844 1.34772,1.289844 1.34772,3.571875 0,2.282031 -1.34772,3.571875 -1.33945,1.289843 -3.72897,1.289843 -2.39778,0 -3.75377,-1.289843 -1.34772,-1.289844 -1.34772,-3.571875 0,-2.282031 1.34772,-3.571875 1.35599,-1.289844 3.75377,-1.289844 z"
               inkscape:connector-curvature="0" />
            <path
               id="path1586"
               style="font-style:normal;font-variant:normal;font-weight:bold;font-stretch:normal;font-size:16.93333244px;font-family:sans-serif;-inkscape-font-specification:'sans-serif Bold';stroke-width:0.26458332"
               d="m -252.3253,67.270365 v -5.655468 h 2.97656 v 0.926041 q 0,0.752409 -0.008,1.893425 -0.008,1.132747 -0.008,1.513085 0,1.116211 0.0579,1.612305 0.0579,0.487826 0.19844,0.711068 0.1819,0.289388 0.47129,0.446484 0.29766,0.157096 0.678,0.157096 0.92604,0 1.4552,-0.711067 0.52917,-0.711068 0.52917,-1.976107 v -4.57233 h 2.96003 v 9.260416 h -2.96003 V 69.53586 q -0.66973,0.810286 -1.42214,1.198893 -0.74414,0.380338 -1.64537,0.380338 -1.60404,0 -2.4474,-0.983919 -0.83509,-0.983919 -0.83509,-2.860807 z"
               inkscape:connector-curvature="0" />
            <path
               id="path1588"
               style="font-style:normal;font-variant:normal;font-weight:bold;font-stretch:normal;font-size:16.93333244px;font-family:sans-serif;-inkscape-font-specification:'sans-serif Bold';stroke-width:0.26458332"
               d="m -233.2753,64.136706 q -0.3886,-0.181901 -0.77721,-0.264583 -0.38034,-0.09095 -0.76895,-0.09095 -1.14101,0 -1.76113,0.735872 -0.61185,0.727604 -0.61185,2.091862 v 4.266406 h -2.96002 v -9.260416 h 2.96002 v 1.521354 q 0.57051,-0.909505 1.30638,-1.322917 0.74414,-0.42168 1.77767,-0.42168 0.14883,0 0.32246,0.01654 0.17364,0.0083 0.50436,0.04961 z"
               inkscape:connector-curvature="0" />
            <path
               id="path1590"
               style="font-style:normal;font-variant:normal;font-weight:bold;font-stretch:normal;font-size:16.93333244px;font-family:sans-serif;-inkscape-font-specification:'sans-serif Bold';stroke-width:0.26458332"
               d="m -220.97217,68.965352 q 0.95084,0 1.44694,-0.694531 0.50436,-0.694531 0.50436,-2.017448 0,-1.322917 -0.50436,-2.017448 -0.4961,-0.694531 -1.44694,-0.694531 -0.95085,0 -1.46348,0.702799 -0.50436,0.694532 -0.50436,2.00918 0,1.314648 0.50436,2.017448 0.51263,0.694531 1.46348,0.694531 z m -1.96784,-5.994466 q 0.61185,-0.810286 1.35599,-1.190625 0.74414,-0.388607 1.71152,-0.388607 1.71152,0 2.8112,1.364258 1.09967,1.35599 1.09967,3.497461 0,2.141471 -1.09967,3.505729 -1.09968,1.355989 -2.8112,1.355989 -0.96738,0 -1.71152,-0.380338 -0.74414,-0.388607 -1.35599,-1.198893 v 1.339453 h -2.96003 V 58.009949 h 2.96003 z"
               inkscape:connector-curvature="0" />
            <path
               id="path1592"
               style="font-style:normal;font-variant:normal;font-weight:bold;font-stretch:normal;font-size:16.93333244px;font-family:sans-serif;-inkscape-font-specification:'sans-serif Bold';stroke-width:0.26458332"
               d="m -213.8615,67.270365 v -5.655468 h 2.97656 v 0.926041 q 0,0.752409 -0.008,1.893425 -0.008,1.132747 -0.008,1.513085 0,1.116211 0.0579,1.612305 0.0579,0.487826 0.19844,0.711068 0.1819,0.289388 0.47129,0.446484 0.29766,0.157096 0.67799,0.157096 0.92605,0 1.45521,-0.711067 0.52917,-0.711068 0.52917,-1.976107 v -4.57233 h 2.96002 v 9.260416 h -2.96002 V 69.53586 q -0.66973,0.810286 -1.42214,1.198893 -0.74414,0.380338 -1.64537,0.380338 -1.60404,0 -2.4474,-0.983919 -0.83509,-0.983919 -0.83509,-2.860807 z"
               inkscape:connector-curvature="0" />
            <path
               id="path1594"
               style="font-style:normal;font-variant:normal;font-weight:bold;font-stretch:normal;font-size:16.93333244px;font-family:sans-serif;-inkscape-font-specification:'sans-serif Bold';stroke-width:0.26458332"
               d="m -194.45596,61.904285 v 2.248958 q -0.95084,-0.396875 -1.83554,-0.595313 -0.8847,-0.198437 -1.67019,-0.198437 -0.84336,0 -1.25677,0.214974 -0.40514,0.206706 -0.40514,0.644922 0,0.355534 0.30592,0.545703 0.3142,0.190169 1.11621,0.28112 l 0.5209,0.07441 q 2.27377,0.289388 3.05925,0.950846 0.78548,0.661458 0.78548,2.075325 0,1.480013 -1.09141,2.224154 -1.0914,0.74414 -3.25768,0.74414 -0.91777,0 -1.90169,-0.148828 -0.97565,-0.14056 -2.00918,-0.429948 v -2.248958 q 0.8847,0.429948 1.81074,0.644922 0.93431,0.214974 1.89343,0.214974 0.86816,0 1.30638,-0.239779 0.43821,-0.239778 0.43821,-0.711067 0,-0.396875 -0.30592,-0.587045 -0.29766,-0.198437 -1.1989,-0.305924 l -0.52089,-0.06615 q -1.97611,-0.248047 -2.76986,-0.917773 -0.79375,-0.669727 -0.79375,-2.033984 0,-1.471745 1.00872,-2.182813 1.00873,-0.711068 3.09232,-0.711068 0.81856,0 1.71979,0.124024 0.90124,0.124023 1.95957,0.388607 z"
               inkscape:connector-curvature="0" />
            <path
               id="path1596"
               style="font-style:normal;font-variant:normal;font-weight:bold;font-stretch:normal;font-size:16.93333244px;font-family:sans-serif;-inkscape-font-specification:'sans-serif Bold';stroke-width:0.26458332"
               d="m -191.60342,61.614897 h 2.96002 v 9.260416 h -2.96002 z m 0,-3.604948 h 2.96002 v 2.414323 h -2.96002 z"
               inkscape:connector-curvature="0" />
            <path
               id="path1598"
               style="font-style:normal;font-variant:normal;font-weight:bold;font-stretch:normal;font-size:16.93333244px;font-family:sans-serif;-inkscape-font-specification:'sans-serif Bold';stroke-width:0.26458332"
               d="m -176.47257,65.236381 v 5.638932 h -2.97656 v -0.917774 -3.398242 q 0,-1.198893 -0.0579,-1.653645 -0.0496,-0.454753 -0.1819,-0.669727 -0.17363,-0.289388 -0.47129,-0.446484 -0.29765,-0.165365 -0.67799,-0.165365 -0.92604,0 -1.45521,0.719336 -0.52917,0.711068 -0.52917,1.976107 v 4.555794 h -2.96002 v -9.260416 h 2.96002 v 1.355989 q 0.66973,-0.810286 1.42214,-1.190625 0.75241,-0.388607 1.66191,-0.388607 1.60404,0 2.43086,0.98392 0.83509,0.983919 0.83509,2.860807 z"
               inkscape:connector-curvature="0" />
            <path
               id="path1600"
               style="font-style:normal;font-variant:normal;font-weight:bold;font-stretch:normal;font-size:16.93333244px;font-family:sans-serif;-inkscape-font-specification:'sans-serif Bold';stroke-width:0.26458332"
               d="m -164.4671,66.2203 v 0.843359 h -6.92051 q 0.10749,1.041797 0.75241,1.562696 0.64492,0.520898 1.80247,0.520898 0.93431,0 1.90996,-0.272852 0.98392,-0.281119 2.01745,-0.843359 v 2.282031 q -1.05006,0.396875 -2.10013,0.595313 -1.05006,0.206705 -2.10013,0.206705 -2.51354,0 -3.91087,-1.273307 -1.38906,-1.281575 -1.38906,-3.588411 0,-2.265495 1.36425,-3.563607 1.37253,-1.298112 3.77032,-1.298112 2.18281,0 3.48919,1.314649 1.31465,1.314648 1.31465,3.513997 z m -3.04271,-0.983919 q 0,-0.84336 -0.49609,-1.35599 -0.48783,-0.520898 -1.28158,-0.520898 -0.8599,0 -1.39733,0.487825 -0.53744,0.479558 -0.66973,1.389063 z"
               inkscape:connector-curvature="0" />
            <path
               id="path1602"
               style="font-style:normal;font-variant:normal;font-weight:bold;font-stretch:normal;font-size:16.93333244px;font-family:sans-serif;-inkscape-font-specification:'sans-serif Bold';stroke-width:0.26458332"
               d="m -154.99998,61.904285 v 2.248958 q -0.95085,-0.396875 -1.83555,-0.595313 -0.8847,-0.198437 -1.67018,-0.198437 -0.84336,0 -1.25677,0.214974 -0.40514,0.206706 -0.40514,0.644922 0,0.355534 0.30592,0.545703 0.3142,0.190169 1.11621,0.28112 l 0.5209,0.07441 q 2.27376,0.289388 3.05925,0.950846 0.78548,0.661458 0.78548,2.075325 0,1.480013 -1.09141,2.224154 -1.0914,0.74414 -3.25768,0.74414 -0.91777,0 -1.90169,-0.148828 -0.97565,-0.14056 -2.00918,-0.429948 v -2.248958 q 0.8847,0.429948 1.81074,0.644922 0.93431,0.214974 1.89342,0.214974 0.86817,0 1.30638,-0.239779 0.43822,-0.239778 0.43822,-0.711067 0,-0.396875 -0.30592,-0.587045 -0.29766,-0.198437 -1.1989,-0.305924 l -0.5209,-0.06615 q -1.9761,-0.248047 -2.76985,-0.917773 -0.79375,-0.669727 -0.79375,-2.033984 0,-1.471745 1.00872,-2.182813 1.00873,-0.711068 3.09232,-0.711068 0.81855,0 1.71979,0.124024 0.90124,0.124023 1.95957,0.388607 z"
               inkscape:connector-curvature="0" />
            <path
               id="path1604"
               style="font-style:normal;font-variant:normal;font-weight:bold;font-stretch:normal;font-size:16.93333244px;font-family:sans-serif;-inkscape-font-specification:'sans-serif Bold';stroke-width:0.26458332"
               d="m -144.91274,61.904285 v 2.248958 q -0.95085,-0.396875 -1.83555,-0.595313 -0.8847,-0.198437 -1.67018,-0.198437 -0.84336,0 -1.25677,0.214974 -0.40515,0.206706 -0.40515,0.644922 0,0.355534 0.30593,0.545703 0.31419,0.190169 1.11621,0.28112 l 0.5209,0.07441 q 2.27376,0.289388 3.05924,0.950846 0.78548,0.661458 0.78548,2.075325 0,1.480013 -1.0914,2.224154 -1.09141,0.74414 -3.25769,0.74414 -0.91777,0 -1.90169,-0.148828 -0.97565,-0.14056 -2.00918,-0.429948 v -2.248958 q 0.8847,0.429948 1.81074,0.644922 0.93431,0.214974 1.89343,0.214974 0.86816,0 1.30638,-0.239779 0.43821,-0.239778 0.43821,-0.711067 0,-0.396875 -0.30592,-0.587045 -0.29766,-0.198437 -1.19889,-0.305924 l -0.5209,-0.06615 q -1.97611,-0.248047 -2.76986,-0.917773 -0.79375,-0.669727 -0.79375,-2.033984 0,-1.471745 1.00873,-2.182813 1.00872,-0.711068 3.09231,-0.711068 0.81856,0 1.7198,0.124024 0.90123,0.124023 1.95957,0.388607 z"
               inkscape:connector-curvature="0" />
            <path
               id="path1606"
               style="font-style:normal;font-variant:normal;font-weight:bold;font-stretch:normal;font-size:16.93333244px;font-family:sans-serif;-inkscape-font-specification:'sans-serif Bold';stroke-width:0.26458332"
               d="m -141.10935,58.530847 h 2.97656 v 4.737695 l -0.42168,3.45612 h -2.1332 l -0.42168,-3.45612 z m 0,9.400976 h 2.97656 v 2.94349 h -2.97656 z"
               inkscape:connector-curvature="0" />
          </g>
        </g>
      </g>
    </g>
  </g>
</svg>
